<svg xmlns="http://www.w3.org/2000/svg" xmlns:xlink="http://www.w3.org/1999/xlink" width="1920" zoomAndPan="magnify" viewBox="0 0 1440 809.999993" height="1080" preserveAspectRatio="xMidYMid meet" version="1.0"><defs><g/><clipPath id="9eb9eb407e"><path d="M 291.125 296 L 433 296 L 433 440 L 291.125 440 Z M 291.125 296 " clip-rule="nonzero"/></clipPath></defs><rect x="-144" width="1728" fill="#ffffff" y="-80.999999" height="971.999992" fill-opacity="1"/><rect x="-144" width="1728" fill="#ffffff" y="-80.999999" height="971.999992" fill-opacity="1"/><path stroke-linecap="round" transform="matrix(3.388695, 0, 0, 3.402467, 204.860314, 246.13111)" fill-opacity="1" fill="#7f7f7f" fill-rule="evenodd" stroke-linejoin="round" d="M 36.824835 11.931181 L 42.161974 15.012585 L 40.518181 19.083619 L 35.228304 15.638279 " stroke="#333333" stroke-width="1.468" stroke-opacity="1" stroke-miterlimit="4"/><path stroke-linecap="round" transform="matrix(3.388695, 0, 0, 3.402467, 204.860314, 246.13111)" fill-opacity="1" fill="#7f7f7f" fill-rule="evenodd" stroke-linejoin="round" d="M 35.03234 15.631391 L 36.804085 11.948402 L 33.015062 15.239901 L 31.473862 18.391337 " stroke="#333333" stroke-width="1.468" stroke-opacity="1" stroke-miterlimit="4"/><path stroke-linecap="round" transform="matrix(3.388695, 0, 0, 3.402467, 204.860314, 246.13111)" fill-opacity="1" fill="#7f7f7f" fill-rule="evenodd" stroke-linejoin="round" d="M 26.453723 29.960377 L 28.094058 27.008705 L 34.338396 25.834235 L 32.91708 29.111958 " stroke="#333333" stroke-width="1.468" stroke-opacity="1" stroke-miterlimit="4"/><path stroke-linecap="round" transform="matrix(3.388695, 0, 0, 3.402467, 204.860314, 246.13111)" fill-opacity="1" fill="#7f7f7f" fill-rule="evenodd" stroke-linejoin="round" d="M 66.479966 46.91843 L 68.029235 42.887577 L 61.577405 36.778729 L 59.72151 40.488124 Z M 66.479966 46.91843 " stroke="#333333" stroke-width="1.468" stroke-opacity="1" stroke-miterlimit="4"/><path stroke-linecap="round" transform="matrix(3.388695, 0, 0, 3.402467, 204.860314, 246.13111)" fill-opacity="1" fill="#7f7f7f" fill-rule="evenodd" stroke-linejoin="round" d="M 38.079005 25.937561 C 35.853083 27.42086 42.120476 54.005429 61.535907 36.815467 L 59.681165 40.539787 C 43.93372 55.174158 31.193749 35.913089 38.079005 25.937561 Z M 38.079005 25.937561 " stroke="#333333" stroke-width="1.468" stroke-opacity="1" stroke-miterlimit="4"/><path stroke-linecap="round" transform="matrix(3.388695, 0, 0, 3.402467, 204.860314, 246.13111)" fill-opacity="1" fill="#4c4c4c" fill-rule="evenodd" stroke-linejoin="round" d="M 53.008011 48.942467 L 51.688135 56.084572 L 53.750369 52.157046 L 54.368232 48.32366 Z M 53.008011 48.942467 " stroke="#333333" stroke-width="1.468" stroke-opacity="1" stroke-miterlimit="4"/><path stroke-linecap="round" transform="matrix(3.388695, 0, 0, 3.402467, 204.860314, 246.13111)" fill-opacity="1" fill="#4c4c4c" fill-rule="evenodd" stroke-linejoin="round" d="M 30.526318 47.061938 L 32.187402 43.345655 L 34.591997 40.415796 L 35.2479 41.64078 Z M 30.526318 47.061938 " stroke="#333333" stroke-width="1.468" stroke-opacity="1" stroke-miterlimit="4"/><path stroke-linecap="round" transform="matrix(3.388695, 0, 0, 3.402467, 204.860314, 246.13111)" fill-opacity="1" fill="#7f7f7f" fill-rule="evenodd" stroke-linejoin="round" d="M 43.825364 14.399518 L 43.839197 17.932111 L 42.355633 21.666763 L 42.32912 18.244385 " stroke="#333333" stroke-width="1.468" stroke-opacity="1" stroke-miterlimit="4"/><path stroke-linecap="round" transform="matrix(3.388695, 0, 0, 3.402467, 204.860314, 246.13111)" fill-opacity="1" fill="#4c4c4c" fill-rule="evenodd" stroke-linejoin="round" d="M 42.11356 15.092949 L 43.812684 14.353596 L 42.281858 18.197314 L 40.575818 18.966517 Z M 42.11356 15.092949 " stroke="#333333" stroke-width="1.468" stroke-opacity="1" stroke-miterlimit="4"/><path fill="#b3b3b3" d="M 308.511719 406.46875 L 320.957031 419.558594 L 341.105469 405.875 L 357.109375 413.015625 L 362.441406 437.148438 L 379.628906 437.0625 L 384.371094 412.246094 L 400.371094 405.875 L 420.523438 418.964844 L 430.003906 405.875 L 407.136719 384.207031 C 348.523438 438.183594 297.871094 354.988281 348.21875 320.183594 L 348.21875 307.6875 L 342.289062 310.664062 L 323.917969 298.9375 L 311.226562 309.402344 L 322.734375 329.109375 L 316.214844 345.175781 L 294.136719 348.921875 L 293.691406 366.003906 L 316.804688 371.953125 L 323.175781 387.574219 L 308.507812 406.46875 Z M 308.511719 406.46875 " fill-opacity="1" fill-rule="evenodd"/><g clip-path="url(#9eb9eb407e)"><path stroke-linecap="round" transform="matrix(3.388695, 0, 0, 3.402467, 204.860314, 246.13111)" fill="none" stroke-linejoin="round" d="M 30.587413 47.123933 L 34.26001 50.971096 L 40.205792 46.949428 L 44.928526 49.048089 L 46.502003 56.140828 L 51.574015 56.11557 L 52.973429 48.82192 L 57.695011 46.949428 L 63.641945 50.79659 L 66.43962 46.949428 L 59.691539 40.581117 C 42.394826 56.445065 27.447376 31.993599 42.304913 21.764349 L 42.304913 18.091692 L 40.555069 18.966517 L 35.13378 15.520029 L 31.38856 18.595692 L 34.784503 24.387675 L 32.860596 29.109662 L 26.345366 30.210655 L 26.213955 35.231139 L 33.034658 36.97964 L 34.914761 41.570748 L 30.58626 47.123933 Z M 30.587413 47.123933 " stroke="#333333" stroke-width="1.468" stroke-opacity="1" stroke-miterlimit="4"/></g><g fill="#b3b3b3" fill-opacity="1"><g transform="translate(359.51328, 354.526819)"><g><path d="M 14.140625 -41.140625 C 18.035156 -41.140625 20.984375 -40.585938 22.984375 -39.484375 C 24.984375 -38.378906 26.429688 -36.367188 27.328125 -33.453125 C 28.222656 -30.546875 28.671875 -26.234375 28.671875 -20.515625 C 28.671875 -12.585938 27.632812 -7.039062 25.5625 -3.875 C 23.488281 -0.71875 19.679688 0.859375 14.140625 0.859375 C 12.785156 0.859375 8.875 0.570312 2.40625 0 L 2.40625 -40.234375 C 7.84375 -40.835938 11.753906 -41.140625 14.140625 -41.140625 Z M 16.984375 -34.765625 C 13.878906 -34.765625 11.929688 -34.703125 11.140625 -34.578125 C 10.359375 -34.453125 9.96875 -34.109375 9.96875 -33.546875 L 9.96875 -6.640625 C 9.96875 -6.242188 10.207031 -6.007812 10.6875 -5.9375 C 11.164062 -5.875 12.144531 -5.84375 13.625 -5.84375 C 15.113281 -5.84375 16.160156 -5.921875 16.765625 -6.078125 C 17.378906 -6.242188 17.941406 -6.53125 18.453125 -6.9375 C 18.972656 -7.34375 19.320312 -8.140625 19.5 -9.328125 C 19.851562 -11.609375 20.03125 -15.144531 20.03125 -19.9375 C 20.03125 -29.820312 19.015625 -34.765625 16.984375 -34.765625 Z M 16.984375 -34.765625 "/></g></g></g><g fill="#b3b3b3" fill-opacity="1"><g transform="translate(397.500842, 354.526819)"><g><path d="M 20.25 -24.375 C 21.675781 -24.375 22.390625 -23.734375 22.390625 -22.453125 C 22.390625 -20.703125 22.28125 -19.503906 22.0625 -18.859375 C 21.851562 -18.210938 21.300781 -17.890625 20.40625 -17.890625 L 9.90625 -17.890625 L 9.90625 -6.484375 L 22.28125 -6.484375 C 23.144531 -6.441406 23.734375 -6.269531 24.046875 -5.96875 C 24.367188 -5.664062 24.53125 -5.210938 24.53125 -4.609375 C 24.53125 -2.859375 24.367188 -1.648438 24.046875 -0.984375 C 23.734375 -0.328125 23.09375 0 22.125 0 L 3.265625 0 L 2.40625 -0.859375 L 2.40625 -40.296875 L 21.4375 -40.296875 C 22.96875 -40.253906 23.734375 -39.679688 23.734375 -38.578125 C 23.703125 -37.609375 23.648438 -36.847656 23.578125 -36.296875 C 23.503906 -35.742188 23.28125 -35.195312 22.90625 -34.65625 C 22.53125 -34.125 21.984375 -33.859375 21.265625 -33.859375 L 9.328125 -33.859375 L 9.90625 -24.375 Z M 20.25 -24.375 "/></g></g></g><g fill="#b3b3b3" fill-opacity="1"><g transform="translate(430.77353, 354.526819)"><g><path d="M 2.40625 -1.28125 L 2.40625 -40.296875 C 6.050781 -40.859375 9.210938 -41.140625 11.890625 -41.140625 C 16.859375 -41.140625 20.285156 -40.210938 22.171875 -38.359375 C 24.066406 -36.503906 25.015625 -33.429688 25.015625 -29.140625 C 25.015625 -23.140625 23.335938 -19.140625 19.984375 -17.140625 L 26.734375 -1.875 C 27.128906 -0.976562 27.328125 -0.394531 27.328125 -0.125 C 27.328125 0.132812 27.289062 0.300781 27.21875 0.375 C 27.070312 0.695312 26.460938 0.859375 25.390625 0.859375 C 21.929688 0.859375 19.894531 0.179688 19.28125 -1.171875 L 13.1875 -15.328125 C 12.289062 -15.253906 10.945312 -15.21875 9.15625 -15.21875 L 9.15625 -1.390625 C 9.15625 -0.390625 9.054688 0.234375 8.859375 0.484375 C 8.671875 0.734375 8.054688 0.859375 7.015625 0.859375 C 3.941406 0.859375 2.40625 0.144531 2.40625 -1.28125 Z M 10.015625 -22.5625 C 12.878906 -22.5625 14.8125 -22.960938 15.8125 -23.765625 C 16.8125 -24.566406 17.3125 -26.378906 17.3125 -29.203125 C 17.3125 -30.910156 17.03125 -32.265625 16.46875 -33.265625 C 15.914062 -34.265625 15.300781 -34.765625 14.625 -34.765625 C 12.09375 -34.765625 10.546875 -34.710938 9.984375 -34.609375 C 9.429688 -34.503906 9.15625 -34.148438 9.15625 -33.546875 L 9.15625 -23.359375 C 9.15625 -22.890625 9.242188 -22.640625 9.421875 -22.609375 C 9.609375 -22.578125 9.804688 -22.5625 10.015625 -22.5625 Z M 10.015625 -22.5625 "/></g></g></g><g fill="#b3b3b3" fill-opacity="1"><g transform="translate(466.67155, 354.526819)"><g><path d="M 20.25 -24.375 C 21.675781 -24.375 22.390625 -23.734375 22.390625 -22.453125 C 22.390625 -20.703125 22.28125 -19.503906 22.0625 -18.859375 C 21.851562 -18.210938 21.300781 -17.890625 20.40625 -17.890625 L 9.90625 -17.890625 L 9.90625 -6.484375 L 22.28125 -6.484375 C 23.144531 -6.441406 23.734375 -6.269531 24.046875 -5.96875 C 24.367188 -5.664062 24.53125 -5.210938 24.53125 -4.609375 C 24.53125 -2.859375 24.367188 -1.648438 24.046875 -0.984375 C 23.734375 -0.328125 23.09375 0 22.125 0 L 3.265625 0 L 2.40625 -0.859375 L 2.40625 -40.296875 L 21.4375 -40.296875 C 22.96875 -40.253906 23.734375 -39.679688 23.734375 -38.578125 C 23.703125 -37.609375 23.648438 -36.847656 23.578125 -36.296875 C 23.503906 -35.742188 23.28125 -35.195312 22.90625 -34.65625 C 22.53125 -34.125 21.984375 -33.859375 21.265625 -33.859375 L 9.328125 -33.859375 L 9.90625 -24.375 Z M 20.25 -24.375 "/></g></g></g><g fill="#b3b3b3" fill-opacity="1"><g transform="translate(499.944238, 354.526819)"><g><path d="M 19.390625 -39.21875 C 19.929688 -40.5 21.394531 -41.140625 23.78125 -41.140625 C 26.175781 -41.140625 27.375 -40.695312 27.375 -39.8125 C 27.375 -39.632812 27.320312 -39.4375 27.21875 -39.21875 L 19.125 -22.34375 L 29.359375 -1.125 C 29.609375 -0.59375 29.734375 -0.210938 29.734375 0.015625 C 29.734375 0.253906 29.671875 0.453125 29.546875 0.609375 C 29.421875 0.773438 28.722656 0.859375 27.453125 0.859375 C 26.191406 0.859375 24.835938 0.707031 23.390625 0.40625 C 21.941406 0.101562 21.054688 -0.40625 20.734375 -1.125 L 11.359375 -20.6875 L 11.359375 -22.28125 Z M 2.40625 -1.078125 L 2.40625 -39.171875 C 2.40625 -39.953125 2.601562 -40.472656 3 -40.734375 C 3.394531 -41.003906 4.128906 -41.140625 5.203125 -41.140625 C 7.773438 -41.140625 9.078125 -40.460938 9.109375 -39.109375 L 9.90625 -23.140625 L 9.96875 -1.171875 C 9.96875 -0.535156 9.929688 -0.109375 9.859375 0.109375 C 9.753906 0.609375 9.078125 0.859375 7.828125 0.859375 C 4.210938 0.859375 2.40625 0.210938 2.40625 -1.078125 Z M 2.40625 -1.078125 "/></g></g></g></svg>